
      <svg data-logo="logo" xmlns="http://www.w3.org/2000/svg" viewBox="0 0 268 43">
        <g id="logogram" transform="translate(0, 1) rotate(0) "><path d="M37.5569 2.04585C38.4821 1.08338 39.7385 0.542663 41.0469 0.542664C46.9335 0.542664 52.4811 0.542667 57.9442 0.542678C68.932 0.542701 74.4342 14.3629 66.6646 22.4456L49.7407 40.0517C48.9637 40.86 47.6352 40.2875 47.6352 39.1444V23.6376L49.591 21.6029C51.145 19.9864 50.0444 17.2223 47.8468 17.2223H22.9684L37.5569 2.04585Z" fill="#BA55D3"/><path d="M33.0467 38.8142C32.1215 39.7767 30.8651 40.3174 29.5567 40.3174C23.6701 40.3174 18.1225 40.3174 12.6594 40.3174C1.67159 40.3173 -3.83061 26.4972 3.93897 18.4144L20.8629 0.808361C21.6399 8.48472e-05 22.9684 0.57254 22.9684 1.71562L22.9684 17.2223L21.0126 19.2571C19.4586 20.8737 20.5592 23.6377 22.7568 23.6377L47.6352 23.6376L33.0467 38.8142Z" fill="#BA55D3"/></g>
        <g id="logotype" transform="translate(77, 8.5)"><path fill="#1b2936" d="M29.42 9.30L29.42 9.30L24.52 9.30Q23.50 4.96 19.16 4.96L19.16 4.96Q15.91 4.96 14.16 7.55L14.16 7.55Q12.65 9.83 12.65 13.61L12.65 13.61Q12.65 17.88 14.54 20.12L14.54 20.12Q16.19 22.04 18.98 22.04L18.98 22.04Q21.40 22.04 22.84 20.79Q24.27 19.52 24.52 17.18L24.52 17.18L29.52 17.18Q29.28 21.73 26.02 24.21L26.02 24.21Q23.22 26.39 18.84 26.39L18.84 26.39Q13.25 26.39 10.16 22.46L10.16 22.46Q7.50 19.07 7.50 13.50L7.50 13.50Q7.50 7.13 11.01 3.63L11.01 3.63Q14.05 0.55 18.95 0.55L18.95 0.55Q24.76 0.55 27.74 4.44L27.74 4.44Q29.21 6.36 29.42 9.30ZM41.18 7.06L41.18 7.06Q45.76 7.06 48.21 10.00L48.21 10.00Q50.34 12.52 50.34 16.73L50.34 16.73Q50.34 21.55 47.58 24.14L47.58 24.14Q45.17 26.39 41.18 26.39L41.18 26.39Q36.59 26.39 34.14 23.48L34.14 23.48Q32.01 20.93 32.01 16.73L32.01 16.73Q32.01 11.93 34.77 9.34L34.77 9.34Q37.19 7.06 41.18 7.06ZM41.18 10.95L41.18 10.95Q39.22 10.95 38.03 12.54Q36.84 14.13 36.84 16.73L36.84 16.73Q36.84 19.52 38.16 21.13L38.16 21.13Q39.36 22.50 41.18 22.50L41.18 22.50Q43.14 22.50 44.34 20.91Q45.55 19.31 45.55 16.73L45.55 16.73Q45.55 13.96 44.19 12.35L44.19 12.35Q43.00 10.95 41.18 10.95ZM69.77 24.77L69.77 24.77L69.77 26L64.52 26Q64.00 25.34 63.96 24.11L63.96 24.11Q62.04 26.39 58.36 26.39L58.36 26.39Q55.67 26.39 54.02 24.74L54.02 24.74Q52.69 23.41 52.69 21.06L52.69 21.06Q52.69 17.56 55.49 16.09L55.49 16.09Q56.68 15.46 60.22 14.83L60.22 14.83L64.00 14.13L63.96 12.80Q63.93 10.95 61.16 10.95L61.16 10.95Q59.38 10.95 58.66 11.49Q57.94 12.03 57.77 13.47L57.77 13.47L53.15 13.47Q53.57 7.06 61.06 7.06L61.06 7.06Q65.19 7.06 67.01 8.53L67.01 8.53Q68.65 9.93 68.65 12.77L68.65 12.77L68.65 23.13Q68.65 24.39 69.77 24.77ZM63.96 18.41L64.00 17.04L60.46 17.84Q58.96 18.20 58.22 18.86L58.22 18.86Q57.52 19.52 57.52 20.50L57.52 20.50Q57.52 22.50 60.11 22.50L60.11 22.50Q63.86 22.50 63.96 18.41L63.96 18.41ZM88.71 14.24L88.71 14.24L84.12 14.24Q83.70 12.42 82.91 11.68Q82.13 10.95 80.69 10.95L80.69 10.95Q78.52 10.95 77.68 12.49L77.68 12.49Q76.77 14.27 76.77 16.86L76.77 16.86Q76.77 19.49 77.80 21.01Q78.84 22.54 80.66 22.54L80.66 22.54Q82.09 22.54 82.88 21.78Q83.67 21.03 84.12 19.28L84.12 19.28L88.71 19.28Q88.36 22.78 85.91 24.70L85.91 24.70Q83.77 26.42 80.62 26.42L80.62 26.42Q76.21 26.42 73.94 23.59L73.94 23.59Q71.94 21.13 71.94 16.97L71.94 16.97Q71.94 11.93 74.56 9.34L74.56 9.34Q76.84 7.06 80.73 7.06L80.73 7.06Q84.44 7.06 86.61 9.20L86.61 9.20Q88.46 11.09 88.71 14.24ZM92.07 26L92.07 0.94L96.90 0.94L96.90 10.07Q98.86 7.06 102.32 7.06L102.32 7.06Q104.77 7.06 106.45 8.50L106.45 8.50Q108.38 10.07 108.38 13.50L108.38 13.50L108.38 26L103.55 26L103.55 14.48Q103.55 11.16 100.61 11.16L100.61 11.16Q98.96 11.16 97.93 12.17Q96.90 13.19 96.90 14.80L96.90 14.80L96.90 26L92.07 26ZM142.64 0.94L135.71 26L131.09 26L126.86 6.47L122.80 26L118.14 26L111.07 0.94L116.53 0.94L120.42 19.73L124.30 0.94L129.38 0.94L133.44 19.77L137.18 0.94L142.64 0.94ZM145.30 7.45L150.13 7.45L150.13 26L145.30 26L145.30 7.45ZM147.68 1.08L147.68 1.08Q148.63 1.08 149.27 1.74Q149.92 2.41 149.92 3.35L149.92 3.35Q149.92 4.30 149.27 4.95Q148.63 5.59 147.68 5.59L147.68 5.59Q146.74 5.59 146.07 4.95Q145.41 4.30 145.41 3.35L145.41 3.35Q145.41 2.41 146.07 1.74Q146.74 1.08 147.68 1.08ZM170.22 12.91L170.22 12.91L165.32 12.91Q165.29 11.79 164.52 11.32Q163.75 10.84 161.86 10.84L161.86 10.84Q159.09 10.84 159.09 12.45L159.09 12.45Q159.09 13.40 160.77 13.85L160.77 13.85L166.86 15.57Q170.50 16.59 170.50 20.19L170.50 20.19Q170.50 23.02 168.30 24.77L168.30 24.77Q166.23 26.39 162.34 26.39L162.34 26.39Q157.59 26.39 155.52 24.98L155.52 24.98Q153.49 23.66 153.35 20.68L153.35 20.68L158.15 20.68Q158.36 21.84 159.14 22.22Q159.93 22.61 162.06 22.61L162.06 22.61Q165.67 22.61 165.67 20.89L165.67 20.89Q165.67 19.88 164.06 19.38L164.06 19.38L158.32 17.63Q156.12 16.97 155.31 16.09L155.31 16.09Q154.26 15.01 154.26 13.15L154.26 13.15Q154.26 10.11 156.57 8.46L156.57 8.46Q158.60 7.06 161.89 7.06L161.89 7.06Q165.88 7.06 168.19 8.85L168.19 8.85Q170.19 10.42 170.22 12.91ZM190.03 17.98L190.03 17.98L177.57 17.98Q177.68 20.23 178.27 21.17L178.27 21.17Q179.29 22.71 181.46 22.71L181.46 22.71Q184.15 22.71 185.06 20.47L185.06 20.47L189.82 20.47Q189.02 23.20 186.69 24.79Q184.36 26.39 181.25 26.39L181.25 26.39Q177.01 26.39 174.74 23.55L174.74 23.55Q172.74 21.06 172.74 17.00L172.74 17.00Q172.74 12.07 175.33 9.38L175.33 9.38Q177.61 7.06 181.32 7.06L181.32 7.06Q184.15 7.06 186.29 8.46Q188.42 9.86 189.33 12.38L189.33 12.38Q190.07 14.34 190.07 17.11L190.07 17.11Q190.07 17.46 190.03 17.98ZM177.64 14.80L185.03 14.80Q184.68 10.74 181.28 10.74L181.28 10.74Q178.10 10.74 177.64 14.80L177.64 14.80Z"/></g>
        
      </svg>
    